<svg width="42" height="40" viewBox="0 0 42 40" fill="none" xmlns="http://www.w3.org/2000/svg">
<path d="M27 20H21M21 20H15M21 20V14.3M21 20V25.7" stroke="black" stroke-width="2" stroke-linecap="round"/>
<path d="M41 20C41 28.9566 41 33.4351 38.071 36.2174C35.1422 39 30.428 39 21 39C11.5719 39 6.85786 39 3.92894 36.2174C1 33.4351 1 28.9566 1 20C1 11.0433 1 6.56497 3.92894 3.78249C6.85786 1 11.5719 1 21 1C30.428 1 35.1422 1 38.071 3.78249C40.0186 5.6326 40.6712 8.23244 40.8898 12.4" stroke="black" stroke-width="2" stroke-linecap="round"/>
</svg>
