<svg width="25" height="25" viewBox="0 0 25 25" fill="none" xmlns="http://www.w3.org/2000/svg">
<path d="M8.7143 9.57143C11.0812 9.57143 13 7.65265 13 5.28571C13 2.91878 11.0812 1 8.7143 1C6.34737 1 4.42859 2.91878 4.42859 5.28571C4.42859 7.65265 6.34737 9.57143 8.7143 9.57143Z" stroke="black" stroke-width="1.71429" stroke-linecap="round" stroke-linejoin="round"/>
<path d="M11.2857 21.5714H1V20.6421C1.01365 19.3355 1.35825 18.0535 2.00161 16.9163C2.64498 15.7789 3.56611 14.8232 4.67898 14.1383C5.79186 13.4535 7.06015 13.0619 8.36539 13.0001C9.67065 12.9383 10.9703 13.2083 12.1429 13.785" stroke="black" stroke-width="1.71429" stroke-linecap="round" stroke-linejoin="round"/>
<path d="M18.1428 13V23.2857" stroke="black" stroke-width="1.71429" stroke-linecap="round" stroke-linejoin="round"/>
<path d="M13 18.1429H23.2857" stroke="black" stroke-width="1.71429" stroke-linecap="round" stroke-linejoin="round"/>
</svg>
