<svg width="25" height="25" viewBox="0 0 25 25" fill="none" xmlns="http://www.w3.org/2000/svg">
<path d="M8.33337 10.9375H16.6667" stroke="#1C274C" stroke-width="1.5" stroke-linecap="round"/>
<path d="M8.33337 14.5833H14.0625" stroke="#1C274C" stroke-width="1.5" stroke-linecap="round"/>
<path d="M17.7083 3.47688C16.1761 2.59057 14.3973 2.08331 12.5 2.08331C6.74699 2.08331 2.08329 6.74701 2.08329 12.5C2.08329 14.1663 2.47456 15.7413 3.17023 17.138C3.3551 17.5091 3.41663 17.9334 3.30946 18.334L2.68903 20.6527C2.4197 21.6593 3.3406 22.5802 4.34719 22.3109L6.66598 21.6905C7.06655 21.5833 7.4908 21.6448 7.86197 21.8297C9.25867 22.5254 10.8336 22.9166 12.5 22.9166C18.2529 22.9166 22.9166 18.2529 22.9166 12.5C22.9166 10.6027 22.4094 8.8238 21.5231 7.29165" stroke="#1C274C" stroke-width="2" stroke-linecap="round"/>
</svg>
