<svg width="22" height="20" viewBox="0 0 22 20" xmlns="http://www.w3.org/2000/svg">
  <path d="M19.3383 10.6495L11.0093 19L2.68024 10.6495C2.13086 10.1083 1.69813 9.45782 1.40928 8.73903C1.12044 8.02024 0.981741 7.2487 1.00193 6.47298C1.02211 5.69726 1.20074 4.93418 1.52656 4.23178C1.85239 3.52938 2.31835 2.90289 2.89511 2.39174C3.47187 1.8806 4.14693 1.49588 4.87778 1.26181C5.60863 1.02775 6.37944 0.949401 7.14167 1.03171C7.9039 1.11402 8.64104 1.35521 9.30666 1.74008C9.97229 2.12494 10.552 2.64516 11.0093 3.26797C11.4685 2.64968 12.0489 2.13401 12.714 1.75323C13.3792 1.37244 14.1149 1.13474 14.875 1.055C15.635 0.975265 16.4032 1.0552 17.1314 1.28982C17.8596 1.52443 18.5321 1.90867 19.1068 2.41848C19.6815 2.92829 20.1461 3.55271 20.4715 4.25264C20.7969 4.95258 20.976 5.71297 20.9978 6.48622C21.0195 7.25947 20.8833 8.02894 20.5978 8.74647C20.3122 9.46399 19.8834 10.1141 19.3383 10.6562" fill="white" stroke="black" stroke-width="2" stroke-linecap="round" stroke-linejoin="round"/>
</svg>
