<svg width="393" height="852" viewBox="0 0 393 852" fill="none" xmlns="http://www.w3.org/2000/svg">
<g clip-path="url(#clip0_29_196)">
<rect width="393" height="852" fill="white"/>
<g clip-path="url(#clip1_29_196)">
<path opacity="0.35" d="M356.667 17.8334H373.333C374.53 17.8334 375.5 18.8034 375.5 20V26C375.5 27.1967 374.53 28.1667 373.333 28.1667H356.667C355.47 28.1667 354.5 27.1967 354.5 26V20C354.5 18.8034 355.47 17.8334 356.667 17.8334Z" stroke="white"/>
<path opacity="0.4" d="M377 21V25C377.805 24.6613 378.328 23.8732 378.328 23C378.328 22.1269 377.805 21.3388 377 21" fill="white"/>
<path d="M356 20.6667C356 19.9303 356.597 19.3334 357.333 19.3334H372.667C373.403 19.3334 374 19.9303 374 20.6667V25.3334C374 26.0698 373.403 26.6667 372.667 26.6667H357.333C356.597 26.6667 356 26.0698 356 25.3334V20.6667Z" fill="white"/>
<path fill-rule="evenodd" clip-rule="evenodd" d="M341.33 19.608C343.546 19.6081 345.678 20.4596 347.283 21.9863C347.404 22.1042 347.598 22.1027 347.717 21.983L348.873 20.8163C348.933 20.7556 348.967 20.6734 348.966 20.5878C348.966 20.5022 348.931 20.4204 348.87 20.3603C344.655 16.3208 338.005 16.3208 333.79 20.3603C333.729 20.4203 333.694 20.5021 333.694 20.5877C333.693 20.6733 333.727 20.7556 333.787 20.8163L334.943 21.983C335.062 22.1029 335.256 22.1044 335.377 21.9863C336.983 20.4595 339.114 19.608 341.33 19.608ZM341.33 23.4037C342.548 23.4036 343.722 23.8561 344.624 24.6733C344.747 24.7893 344.939 24.7868 345.058 24.6677L346.212 23.501C346.273 23.4398 346.307 23.3568 346.306 23.2705C346.305 23.1843 346.27 23.102 346.208 23.042C343.46 20.4856 339.204 20.4856 336.455 23.042C336.393 23.102 336.358 23.1843 336.357 23.2706C336.356 23.3569 336.39 23.4399 336.451 23.501L337.605 24.6677C337.724 24.7868 337.917 24.7893 338.039 24.6733C338.941 23.8567 340.114 23.4042 341.33 23.4037ZM343.643 25.9575C343.645 26.044 343.611 26.1274 343.549 26.188L341.552 28.2037C341.494 28.2629 341.414 28.2963 341.33 28.2963C341.247 28.2963 341.167 28.2629 341.109 28.2037L339.111 26.188C339.049 26.1274 339.015 26.0439 339.017 25.9574C339.019 25.8709 339.057 25.789 339.121 25.731C340.396 24.6521 342.265 24.6521 343.54 25.731C343.604 25.789 343.642 25.871 343.643 25.9575Z" fill="white"/>
<path fill-rule="evenodd" clip-rule="evenodd" d="M327.667 17.6666H326.667C326.114 17.6666 325.667 18.1143 325.667 18.6666V27.3333C325.667 27.8856 326.114 28.3333 326.667 28.3333H327.667C328.219 28.3333 328.667 27.8856 328.667 27.3333V18.6666C328.667 18.1143 328.219 17.6666 327.667 17.6666ZM322 20H323C323.552 20 324 20.4477 324 21V27.3333C324 27.8856 323.552 28.3333 323 28.3333H322C321.448 28.3333 321 27.8856 321 27.3333V21C321 20.4477 321.448 20 322 20ZM318.333 22.3333H317.333C316.781 22.3333 316.333 22.781 316.333 23.3333V27.3333C316.333 27.8856 316.781 28.3333 317.333 28.3333H318.333C318.886 28.3333 319.333 27.8856 319.333 27.3333V23.3333C319.333 22.781 318.886 22.3333 318.333 22.3333ZM313.667 24.3333H312.667C312.114 24.3333 311.667 24.781 311.667 25.3333V27.3333C311.667 27.8856 312.114 28.3333 312.667 28.3333H313.667C314.219 28.3333 314.667 27.8856 314.667 27.3333V25.3333C314.667 24.781 314.219 24.3333 313.667 24.3333Z" fill="white"/>
<path d="M37.3208 28.2563C40.0088 28.2563 41.6055 26.1543 41.6055 22.5947C41.6055 21.2544 41.3491 20.1265 40.8584 19.2549C40.1479 17.8999 38.9248 17.1675 37.3794 17.1675C35.0796 17.1675 33.4536 18.7129 33.4536 20.8809C33.4536 22.917 34.9185 24.3965 36.9326 24.3965C38.1704 24.3965 39.1738 23.8179 39.6719 22.8145H39.6938C39.6938 22.8145 39.7231 22.8145 39.7305 22.8145C39.7451 22.8145 39.7964 22.8145 39.7964 22.8145C39.7964 25.2314 38.8809 26.6743 37.3354 26.6743C36.4272 26.6743 35.7241 26.1763 35.4824 25.3779H33.6001C33.915 27.1138 35.3872 28.2563 37.3208 28.2563ZM37.3867 22.895C36.1709 22.895 35.3066 22.0308 35.3066 20.8223C35.3066 19.6431 36.2148 18.7422 37.394 18.7422C38.5732 18.7422 39.4814 19.6577 39.4814 20.8516C39.4814 22.0308 38.5952 22.895 37.3867 22.895Z" fill="white"/>
<path d="M44.6966 28.1538C45.3924 28.1538 45.8685 27.6558 45.8685 26.9966C45.8685 26.3301 45.3924 25.8394 44.6966 25.8394C44.0081 25.8394 43.5247 26.3301 43.5247 26.9966C43.5247 27.6558 44.0081 28.1538 44.6966 28.1538ZM44.6966 22.6606C45.3924 22.6606 45.8685 22.1699 45.8685 21.5107C45.8685 20.8442 45.3924 20.3535 44.6966 20.3535C44.0081 20.3535 43.5247 20.8442 43.5247 21.5107C43.5247 22.1699 44.0081 22.6606 44.6966 22.6606Z" fill="white"/>
<path d="M52.7242 28H54.5333V26.0298H55.9615V24.4331H54.5333V17.4312H51.8673C49.9996 20.2437 48.5128 22.5947 47.5606 24.3452V26.0298H52.7242V28ZM49.3111 24.3672C50.5416 22.1992 51.6402 20.4634 52.651 18.9692H52.7535V24.4771H49.3111V24.3672Z" fill="white"/>
<path d="M59.9901 28H61.8798V17.4312H59.9975L57.2362 19.3647V21.1812L59.8656 19.3354H59.9901V28Z" fill="white"/>
</g>
<g filter="url(#filter0_i_29_196)">
<path d="M-69 873.161C77 726.641 70.5 839.641 202.5 823.141C454.454 784.141 311.954 833.661 474 873.161C474 931.979 352.445 979.661 202.5 979.661C52.5547 979.661 -69 931.979 -69 873.161Z" fill="#FFCDBD" fill-opacity="0.5"/>
</g>
</g>
<defs>
<filter id="filter0_i_29_196" x="-69" y="797" width="543" height="186.661" filterUnits="userSpaceOnUse" color-interpolation-filters="sRGB">
<feFlood flood-opacity="0" result="BackgroundImageFix"/>
<feBlend mode="normal" in="SourceGraphic" in2="BackgroundImageFix" result="shape"/>
<feColorMatrix in="SourceAlpha" type="matrix" values="0 0 0 0 0 0 0 0 0 0 0 0 0 0 0 0 0 0 127 0" result="hardAlpha"/>
<feOffset dy="4"/>
<feGaussianBlur stdDeviation="2"/>
<feComposite in2="hardAlpha" operator="arithmetic" k2="-1" k3="1"/>
<feColorMatrix type="matrix" values="0 0 0 0 0 0 0 0 0 0 0 0 0 0 0 0 0 0 0.25 0"/>
<feBlend mode="normal" in2="shape" result="effect1_innerShadow_29_196"/>
</filter>
<clipPath id="clip0_29_196">
<rect width="393" height="852" fill="white"/>
</clipPath>
<clipPath id="clip1_29_196">
<rect width="393" height="44" fill="white"/>
</clipPath>
</defs>
</svg>
